<?xml version="1.0" standalone="no"?>
<!DOCTYPE svg PUBLIC "-//W3C//DTD SVG 20010904//EN"
 "http://www.w3.org/TR/2001/REC-SVG-20010904/DTD/svg10.dtd">
<svg version="1.0" xmlns="http://www.w3.org/2000/svg"
 width="739.000000pt" height="739.000000pt" viewBox="0 0 739.000000 739.000000"
 preserveAspectRatio="xMidYMid meet">
<metadata>
Created by potrace 1.14, written by Peter Selinger 2001-2017
</metadata>
<g transform="translate(0.000000,739.000000) scale(0.100000,-0.100000)"
fill="#000000" stroke="none">
<path d="M2602 5676 c-18 -8 -33 -15 -35 -15 -34 4 -160 -111 -145 -133 1 -2
-4 -13 -11 -26 -7 -13 -17 -20 -24 -15 -7 4 -7 0 2 -10 7 -9 9 -17 4 -17 -5 0
-9 -16 -8 -35 1 -19 -2 -32 -6 -29 -5 3 -9 0 -9 -5 0 -6 4 -11 9 -11 6 0 8 -9
6 -21 -5 -25 -50 -70 -61 -60 -4 3 -4 0 0 -7 6 -11 12 -9 27 7 11 12 25 21 32
21 8 0 9 -3 1 -8 -5 -4 -10 -26 -9 -49 2 -35 -2 -43 -16 -43 -26 0 -30 -25 -8
-48 20 -23 25 -37 9 -27 -5 3 -10 1 -10 -4 0 -6 6 -11 13 -11 9 0 8 -3 -2 -9
-10 -6 -10 -10 -2 -16 9 -5 8 -14 -4 -32 -10 -14 -13 -23 -8 -20 5 3 9 -3 10
-13 1 -10 -5 -21 -13 -24 -11 -4 -12 -10 -4 -25 5 -11 10 -28 9 -38 0 -15 -2
-14 -9 5 -10 22 -30 31 -30 11 0 -5 5 -7 10 -4 6 3 10 -3 10 -14 0 -11 4 -22
8 -25 8 -5 8 -40 -1 -98 -2 -16 0 -28 5 -28 5 0 7 -4 4 -9 -3 -5 -14 -8 -24
-6 -9 1 -11 0 -4 -2 6 -3 12 -9 12 -15 0 -6 3 -8 7 -5 3 4 12 -5 19 -19 13
-24 12 -28 -11 -46 -14 -11 -25 -27 -24 -36 0 -14 2 -14 6 -2 7 16 42 50 53
50 10 0 5 -32 -8 -57 -8 -15 -9 -24 -2 -28 6 -4 9 -3 8 2 -1 4 3 18 10 29 6
12 8 24 5 28 -12 12 16 6 29 -6 7 -7 20 -15 28 -17 8 -2 31 -8 50 -13 19 -5
41 -10 47 -10 9 -1 10 -5 2 -14 -6 -7 -7 -19 -3 -25 5 -9 2 -10 -10 -6 -10 4
-15 3 -11 -3 3 -6 -1 -10 -10 -10 -9 0 -14 4 -10 9 3 6 -4 15 -15 21 -16 9
-26 6 -50 -12 -40 -29 -38 -35 3 -9 22 14 37 17 47 11 8 -6 11 -10 6 -10 -6 0
-5 -5 2 -12 9 -9 21 -7 51 7 22 10 38 22 34 27 -3 6 -9 5 -14 -3 -4 -7 -11
-10 -16 -6 -4 5 -1 12 6 17 12 7 35 -2 70 -27 2 -1 5 -13 5 -25 1 -13 5 -28 8
-33 9 -14 -9 -42 -19 -31 -4 5 -2 11 4 13 9 3 9 10 -3 28 -9 13 -13 29 -10 34
4 5 1 13 -5 17 -7 4 -9 3 -5 -4 3 -6 2 -13 -4 -17 -5 -3 -10 -2 -10 4 0 6 -14
2 -30 -7 -29 -16 -37 -47 -13 -47 6 0 15 -3 19 -7 4 -5 3 -8 -3 -8 -6 0 -14
-7 -17 -15 -5 -13 -1 -12 18 2 21 16 22 19 7 29 -9 7 -19 10 -23 8 -5 -3 -8
-1 -8 5 0 19 20 22 36 6 9 -9 22 -14 29 -12 7 3 12 -5 12 -24 0 -22 -3 -26
-13 -18 -14 12 -38 3 -29 -11 3 -5 -2 -11 -10 -13 -11 -3 -10 -4 2 -3 10 1 17
8 16 14 -5 21 19 13 24 -8 3 -11 9 -20 14 -20 5 0 6 6 3 14 -6 17 12 31 21 16
3 -5 2 -10 -4 -10 -6 0 -8 -7 -5 -15 4 -8 1 -15 -6 -15 -6 0 -10 -6 -7 -12 2
-7 -2 -28 -9 -45 -11 -29 -11 -34 4 -43 14 -9 13 -10 -5 -5 -14 4 -23 2 -23
-5 0 -6 4 -9 9 -6 5 3 14 -1 21 -9 7 -8 8 -15 3 -15 -5 0 -9 -19 -10 -42 -1
-56 -8 -102 -18 -119 -19 -30 -49 -58 -57 -53 -5 3 -8 2 -7 -3 3 -20 -2 -34
-11 -28 -5 3 -11 0 -11 -7 -5 -45 -7 -56 -12 -66 -4 -5 1 -9 10 -8 10 0 19 -7
21 -18 2 -11 0 -16 -7 -12 -7 5 -8 1 -4 -11 6 -15 4 -16 -9 -5 -11 9 -18 10
-23 2 -4 -6 -1 -9 6 -8 6 2 14 -3 17 -11 3 -9 0 -11 -8 -6 -8 5 -11 4 -6 -3 3
-6 -2 -13 -11 -15 -16 -4 -16 -5 -1 -6 9 0 23 8 31 19 8 11 16 17 19 14 3 -3
5 1 5 8 -1 7 1 14 6 16 4 1 7 -1 6 -4 0 -4 5 -11 13 -15 10 -6 10 -13 2 -26
-15 -24 -36 -29 -27 -7 6 16 5 17 -9 4 -9 -9 -12 -18 -6 -21 5 -3 1 -9 -11
-12 -15 -4 -18 -10 -14 -27 4 -15 2 -21 -5 -16 -6 3 -13 2 -16 -3 -4 -5 2 -8
11 -7 10 2 18 12 17 23 0 13 12 24 36 34 l36 16 -2 -39 c-1 -21 1 -38 6 -38 6
0 7 -19 1 -53 0 -5 -5 -5 -11 -2 -6 3 -7 -1 -4 -9 3 -9 11 -13 16 -10 7 4 7 0
1 -12 -6 -11 -9 -36 -8 -56 1 -30 -2 -38 -16 -38 -26 0 -31 -14 -13 -36 14
-18 15 -18 4 4 -9 18 -8 22 4 22 12 0 14 -13 12 -67 -2 -38 -5 -69 -6 -70 -1
-2 -3 -11 -4 -20 -4 -37 -18 -63 -29 -56 -7 4 -5 -1 3 -12 14 -17 13 -17 -10
-10 -24 7 -25 7 -5 -9 20 -17 20 -17 -2 -11 -18 5 -21 2 -18 -14 2 -14 -1 -21
-11 -21 -25 0 -29 -1 -44 -15 -15 -13 -44 -20 -130 -30 -63 -8 -103 -14 -106
-18 -4 -4 -12 -46 -13 -70 -1 -12 -6 -16 -13 -11 -10 6 -10 4 0 -7 14 -15 17
-43 3 -34 -5 3 -13 0 -17 -6 -4 -7 -3 -9 4 -5 6 3 13 2 16 -3 4 -5 -4 -12 -16
-14 l-23 -4 22 -2 c14 -1 21 -6 17 -14 -5 -14 -11 -53 -13 -90 -1 -18 -3 -18
-36 2 -19 11 -35 18 -35 16 0 -3 15 -14 32 -25 26 -16 33 -27 34 -54 1 -23 -5
-41 -17 -52 -11 -10 -19 -12 -19 -6 0 7 -4 12 -8 12 -5 0 -9 -7 -9 -15 0 -8 4
-12 9 -9 4 3 8 0 8 -7 0 -7 6 -5 13 6 10 12 16 14 21 7 4 -7 4 -12 -1 -12 -4
0 -8 -30 -8 -66 0 -68 -7 -83 -29 -65 -9 8 -13 7 -13 -4 0 -7 3 -14 6 -13 18
2 31 -3 31 -11 0 -5 -10 -7 -22 -4 -22 4 -22 3 2 -11 16 -10 19 -15 10 -16
-12 0 -13 -2 -1 -9 9 -6 10 -11 2 -15 -6 -4 -9 -12 -5 -17 3 -5 0 -17 -8 -26
-7 -9 -8 -14 -3 -11 6 4 10 -4 9 -20 -1 -15 -3 -32 -3 -38 -1 -6 -11 -16 -23
-23 -21 -10 -21 -11 -2 -6 18 5 21 1 21 -30 0 -37 -6 -42 -25 -23 -7 7 -12 8
-12 4 0 -4 10 -17 23 -28 12 -11 17 -17 11 -14 -7 3 -12 -4 -11 -19 0 -14 5
-25 11 -25 7 0 7 -3 1 -8 -5 -4 -11 -20 -12 -37 -5 -88 -8 -105 -18 -102 -5 2
-9 13 -7 23 2 18 2 18 -8 1 -9 -14 -7 -22 12 -38 21 -18 22 -19 3 -17 -11 2
-25 9 -31 17 -9 11 -12 12 -19 1 -5 -8 -4 -11 2 -7 6 4 14 0 17 -9 3 -9 11
-12 18 -8 8 5 9 2 4 -11 -5 -15 -4 -16 8 -6 13 11 14 8 5 -21 -5 -18 -10 -52
-10 -75 -1 -30 -5 -43 -15 -43 -8 0 -13 5 -11 12 1 6 -6 14 -15 16 -10 2 -18
-1 -18 -7 0 -6 7 -7 17 -4 11 4 14 3 9 -6 -5 -8 -1 -14 13 -18 25 -6 28 -23 4
-24 -15 0 -15 -2 -3 -7 9 -4 15 -13 14 -19 -1 -7 -2 -18 -3 -24 -1 -7 -10 -5
-26 5 -13 9 -28 16 -32 16 -4 0 9 -11 29 -23 25 -16 34 -27 29 -36 -7 -11 -10
-11 -14 0 -3 9 -6 10 -6 2 -1 -6 4 -15 10 -18 6 -5 4 -12 -8 -21 -17 -14 -16
-15 6 -8 18 5 22 3 15 -7 -9 -15 -10 -20 -12 -56 -2 -27 -19 -31 -24 -5 -3 14
-5 13 -10 -5 -3 -12 -3 -22 1 -21 26 3 31 -4 25 -34 -4 -18 -7 -51 -7 -73 -1
-37 -10 -54 -30 -55 -4 0 0 12 9 28 15 27 15 27 -2 3 -21 -28 -28 -61 -13 -61
5 0 8 4 5 9 -3 5 2 11 12 13 11 3 19 0 19 -8 0 -8 -4 -14 -8 -14 -5 0 -13 -10
-19 -22 -10 -22 -10 -22 4 -4 14 17 15 16 14 -13 -1 -17 -5 -31 -10 -31 -5 0
-6 4 -3 10 4 6 -1 7 -11 3 -11 -4 -13 -8 -6 -11 23 -7 2 -21 -25 -16 -15 3
-25 2 -22 -1 12 -11 59 -15 59 -5 0 5 4 10 10 10 17 0 6 -55 -13 -62 -21 -9
-17 -34 4 -31 9 2 15 -7 15 -27 1 -20 -2 -27 -10 -23 -6 4 -5 -1 3 -10 8 -10
11 -20 8 -24 -4 -3 -2 -12 4 -20 6 -7 9 -13 5 -13 -3 0 3 -22 13 -49 10 -28
16 -52 13 -55 -3 -4 0 -6 7 -6 7 0 9 -4 6 -10 -3 -5 -1 -10 6 -10 7 0 9 -3 6
-7 -4 -3 2 -13 14 -21 17 -12 18 -16 7 -30 -11 -13 -11 -14 0 -8 14 8 42 -10
42 -27 0 -7 -4 -7 -12 1 -7 7 -16 12 -21 12 -5 0 -2 -6 6 -14 8 -8 24 -12 40
-9 19 4 29 0 33 -11 3 -9 13 -16 21 -16 8 0 11 -5 8 -10 -5 -8 -11 -7 -21 1
-11 9 -14 9 -14 0 0 -7 -3 -10 -7 -8 -5 2 -21 -10 -38 -26 -22 -22 -24 -26 -6
-14 13 8 31 13 40 10 12 -4 13 -3 3 5 -11 7 -10 10 3 16 24 9 27 8 19 -6 -4
-6 3 -4 15 5 24 16 56 13 44 -6 -4 -6 -1 -7 8 -1 17 11 59 13 53 2 -8 -13 11
-9 25 5 8 7 11 7 8 1 -4 -7 0 -17 9 -24 12 -10 17 -11 27 -1 9 10 8 11 -5 6
-10 -4 -18 -3 -18 1 0 5 16 10 35 11 26 1 35 -3 40 -18 5 -16 9 -18 21 -8 11
9 18 8 32 -4 16 -15 18 -15 18 2 0 11 -6 17 -13 14 -7 -3 -13 -1 -13 4 0 11
50 11 67 0 6 -4 13 -2 15 5 3 9 6 9 12 0 4 -7 2 -12 -3 -12 -6 0 -11 -5 -11
-11 0 -8 4 -8 15 1 8 6 20 8 27 4 9 -5 8 -1 -2 12 -14 18 -14 18 3 5 16 -13
20 -13 28 0 6 10 9 10 9 2 0 -13 26 -13 47 0 6 4 14 3 18 -2 3 -5 14 -8 25 -6
12 2 18 0 15 -4 -8 -14 25 -22 43 -11 14 9 13 10 -5 5 -13 -4 -23 -2 -23 2 0
5 42 9 94 8 52 0 92 -3 90 -6 -2 -4 8 -15 22 -24 15 -9 24 -12 20 -7 -3 6 -2
13 4 17 6 4 8 10 5 15 -3 5 9 5 27 -1 23 -6 34 -5 40 4 5 8 8 7 8 -5 0 -10 5
-18 11 -18 5 0 7 4 4 10 -3 6 22 9 65 7 38 -1 70 -5 70 -10 0 -4 6 -5 13 0 6
4 27 8 45 9 28 1 32 -1 27 -20 -2 -11 -2 -15 1 -8 3 6 10 12 15 12 6 0 7 -4 4
-10 -3 -6 1 -7 10 -4 14 6 14 8 -1 19 -14 10 -6 12 52 13 38 0 88 8 111 16 24
8 51 13 62 11 11 -2 22 3 25 11 3 9 10 13 15 9 6 -3 14 2 19 11 5 9 11 15 13
13 8 -5 64 36 104 76 22 22 43 39 46 38 4 -1 6 5 5 15 0 9 4 16 11 15 8 -2 10
4 6 14 -4 11 -3 14 5 9 8 -5 10 -2 6 8 -3 9 -1 16 5 16 6 0 10 3 9 8 -1 4 4
19 10 33 6 15 12 35 14 45 2 11 10 25 18 32 11 10 12 12 1 6 -11 -6 -13 -3 -7
12 5 10 9 25 9 32 0 6 10 13 21 13 17 1 18 2 4 6 -19 5 -26 63 -8 63 6 0 10 5
10 11 0 5 -4 8 -9 5 -5 -4 -8 2 -6 11 2 10 4 24 4 31 1 7 6 10 12 6 8 -5 9 -2
1 11 -5 11 -6 30 -2 46 5 15 6 30 2 33 -3 3 2 14 12 25 15 16 15 19 1 31 -14
11 -13 14 2 26 10 7 13 14 8 14 -6 0 -11 18 -11 40 0 43 9 45 13 2 10 -114 10
-122 -3 -122 -8 0 -14 -4 -14 -9 0 -5 8 -8 18 -7 14 1 17 -7 16 -51 0 -29 2
-53 5 -53 3 0 7 -30 9 -68 3 -94 5 -112 12 -112 3 0 6 -21 7 -47 4 -67 9 -102
16 -110 20 -19 3 -21 -23 -3 -16 12 -30 17 -30 11 0 -6 4 -11 8 -11 15 0 57
-41 57 -56 0 -8 6 -18 13 -23 11 -6 8 -13 -10 -27 -14 -11 -22 -26 -20 -34 5
-13 3 -13 -14 0 -15 11 -16 11 -7 0 17 -19 43 -22 36 -4 -3 7 2 20 10 29 21
20 30 19 23 -3 -4 -13 1 -23 19 -32 32 -17 32 -28 0 -26 -16 0 -23 6 -20 13 2
7 -1 13 -6 13 -6 0 -9 -9 -6 -20 4 -14 0 -20 -11 -21 -11 0 -13 -2 -4 -6 7 -3
19 1 28 8 12 10 18 9 32 -5 16 -17 16 -18 -8 -11 -14 4 -22 4 -18 0 11 -11 59
-15 52 -4 -3 5 -1 9 4 9 16 0 22 -13 11 -27 -8 -8 -8 -13 -1 -13 6 0 13 6 15
13 4 9 8 8 16 -3 6 -8 11 -11 11 -6 0 5 -11 19 -24 31 -18 16 -27 20 -35 12
-8 -8 -11 -8 -11 0 0 7 5 15 11 19 6 3 -2 14 -21 26 -18 10 -29 22 -25 26 4 4
10 1 12 -5 3 -7 13 -13 23 -13 10 0 21 -9 25 -20 3 -11 12 -19 18 -17 7 1 11
-4 9 -12 -2 -8 3 -11 11 -8 8 3 27 -3 42 -13 16 -11 32 -17 36 -15 3 3 7 -6 7
-20 0 -14 -5 -22 -11 -18 -6 3 -7 1 -3 -6 10 -15 29 -3 22 15 -7 18 9 27 51
28 37 1 38 0 19 -19 -10 -10 -16 -11 -25 -2 -6 6 -11 7 -11 1 0 -5 9 -15 21
-22 12 -8 18 -9 15 -4 -8 14 25 38 54 40 19 1 26 -4 27 -18 2 -19 0 -19 -25
-4 l-27 16 25 -20 c26 -21 45 -20 36 3 -8 23 19 38 37 20 17 -17 31 -20 22 -5
-3 6 -2 10 3 10 19 0 21 -14 5 -32 -16 -18 -16 -18 0 -12 15 5 21 17 19 36 -2
12 27 17 34 6 5 -7 2 -8 -5 -3 -10 6 -11 3 -2 -14 7 -11 15 -21 19 -22 4 0 17
-2 30 -5 12 -2 22 1 22 7 0 5 -5 7 -12 3 -7 -5 -9 -2 -6 8 4 8 1 15 -7 15 -7
0 -11 -6 -8 -14 4 -9 0 -11 -11 -7 -22 9 -15 29 11 30 11 1 25 4 31 8 6 3 13
3 15 -1 3 -5 51 -8 106 -7 56 0 101 -3 101 -8 0 -5 -4 -6 -10 -3 -6 4 -7 -1
-3 -12 6 -16 5 -16 -10 -4 -10 8 -20 11 -24 7 -3 -3 -1 -6 6 -6 7 0 10 -4 7
-8 -3 -5 2 -9 10 -9 9 0 21 11 27 24 5 13 16 23 23 23 15 0 26 -27 14 -35 -5
-3 -11 3 -13 12 -4 16 -5 16 -6 1 -1 -24 11 -29 34 -12 10 8 13 14 7 14 -7 0
-12 3 -12 8 0 10 177 9 187 -2 5 -5 2 -6 -6 -1 -10 6 -12 4 -7 -4 8 -12 20 -7
22 10 3 22 5 23 12 11 7 -10 15 -10 36 -2 21 8 25 7 20 -3 -5 -8 -3 -8 9 2 20
16 52 7 41 -11 -5 -9 -3 -9 9 1 18 14 22 23 9 18 -4 -1 -7 2 -7 8 0 5 3 9 8 8
4 -2 7 2 7 9 0 6 3 8 7 5 3 -4 12 -2 20 4 10 9 17 8 28 -1 13 -11 14 -10 10 2
-7 18 30 52 46 42 8 -5 10 -3 4 6 -6 10 -4 12 9 7 11 -4 15 -3 11 4 -4 5 5 21
19 34 14 13 26 29 26 35 0 5 5 10 10 10 6 0 10 6 10 14 0 8 7 22 16 30 8 9 13
16 10 16 -3 0 2 16 10 35 8 19 18 61 22 93 9 73 9 434 -1 577 -4 61 -10 151
-12 200 -3 50 -8 115 -11 145 -4 30 -8 75 -10 100 -1 25 -3 45 -4 45 -2 0 -7
59 -14 156 -2 36 -6 79 -9 95 -8 36 -14 81 -22 159 -13 114 -75 334 -97 343
-5 2 -8 11 -8 20 -1 23 -63 61 -113 68 -23 4 -48 11 -55 17 -21 17 -59 102
-67 148 -3 24 -10 58 -15 74 -5 17 -12 54 -15 83 -3 29 -10 64 -15 78 -5 13
-8 24 -6 24 2 0 -2 20 -10 45 -7 25 -11 45 -8 45 2 0 -6 19 -18 43 -12 23 -21
45 -20 49 3 12 -125 138 -142 138 -9 0 -16 4 -16 9 0 24 -197 83 -321 97 -27
3 -66 12 -84 20 -28 11 -34 19 -31 37 3 12 5 29 5 38 1 9 13 29 29 44 15 16
20 24 12 20 -8 -5 2 9 24 30 21 22 42 39 47 38 4 -2 6 4 3 11 -3 9 3 17 16 21
12 4 19 9 16 12 -2 3 1 11 7 18 9 9 16 10 25 3 9 -8 11 -7 7 4 -4 9 1 23 10
32 14 14 20 14 34 4 14 -11 14 -11 3 4 -11 13 -10 19 3 30 9 7 34 30 55 51 22
21 45 35 50 32 6 -4 7 1 3 11 -6 15 -4 15 19 0 20 -13 25 -14 25 -2 0 8 -6 12
-14 9 -7 -3 -13 0 -13 6 0 6 6 11 14 11 8 0 16 7 20 15 3 8 14 15 23 15 10 0
29 7 42 16 23 16 23 16 17 -7 -5 -19 -3 -19 7 4 12 25 15 26 26 13 8 -9 18
-16 24 -16 6 0 3 6 -8 13 -12 10 -14 16 -7 21 7 4 12 2 12 -4 0 -6 5 -8 10 -5
6 3 11 1 11 -4 1 -6 2 -17 3 -23 1 -7 -5 -22 -13 -33 -15 -18 -15 -19 0 -7 9
6 18 9 21 6 3 -3 4 11 2 31 -2 25 1 35 9 32 7 -2 24 0 40 4 18 5 27 4 27 -4 0
-8 3 -8 11 0 6 6 17 10 23 8 18 -6 55 49 61 91 25 176 25 291 0 534 -6 58 -10
76 -29 128 -8 23 -15 46 -15 50 -1 19 -40 79 -71 109 -107 103 -188 119 -605
116 -176 -1 -327 -3 -335 -6 -71 -18 -101 -31 -140 -57 -25 -16 -42 -30 -38
-30 4 0 0 -9 -9 -19 -16 -19 -17 -19 -56 15 -22 18 -59 43 -81 53 -73 35 -103
37 -696 46 -329 5 -390 3 -418 -9z m-232 -487 c0 -18 -2 -19 -15 -9 -15 12
-12 30 6 30 5 0 9 -10 9 -21z m1498 -535 c26 -2 29 -5 27 -26 -1 -13 -3 -30
-4 -37 -1 -12 -4 -12 -13 -3 -10 10 -10 15 2 23 11 8 9 9 -10 3 -24 -6 -24 -6
-8 13 17 18 16 19 -10 17 -43 -2 -44 -3 -38 -20 4 -9 2 -22 -3 -28 -7 -8 -4
-12 11 -13 12 -1 25 -8 29 -15 7 -10 9 -10 9 0 0 7 -10 16 -22 21 -15 5 -18
10 -9 15 14 9 41 -10 41 -29 0 -17 -37 -48 -49 -41 -6 4 -8 14 -5 24 5 14 4
14 -4 2 -7 -9 -7 -19 -2 -26 6 -6 6 -15 2 -19 -4 -5 -1 -5 7 0 9 5 12 4 7 -3
-4 -7 -17 -12 -29 -12 -16 0 -19 -3 -8 -9 15 -10 7 -31 -12 -31 -7 0 -6 4 3
10 10 6 11 10 3 10 -13 0 -13 25 -2 45 4 6 5 18 4 28 -2 9 1 15 6 11 5 -3 7 5
5 18 -5 32 13 78 31 78 8 0 11 5 8 13 -4 6 -1 5 7 -3 7 -8 19 -15 26 -16z
m-18 -24 c0 -5 -7 -10 -16 -10 -8 0 -12 5 -9 10 3 6 10 10 16 10 5 0 9 -4 9
-10z m-1250 -70 c8 -5 11 -12 7 -16 -4 -4 -15 0 -24 9 -18 18 -8 23 17 7z
m1300 -970 c12 -23 12 -24 -3 -12 -9 8 -21 11 -27 7 -5 -3 -10 -1 -10 4 0 6 5
11 11 11 5 0 7 5 3 11 -12 21 -26 -19 -14 -41 13 -25 2 -26 -16 -2 -13 16 -14
16 -8 -1 9 -26 43 -42 58 -27 8 8 7 10 -4 5 -11 -4 -16 1 -17 15 -2 24 3 25
25 4 17 -17 26 -124 10 -124 -4 0 -8 -5 -8 -11 0 -5 4 -8 8 -5 4 2 8 -6 8 -20
0 -25 -10 -32 -21 -14 -8 13 -25 13 -25 -1 0 -5 4 -8 9 -4 11 6 44 -36 35 -44
-3 -3 -12 3 -20 13 -16 23 -19 13 -3 -15 5 -11 15 -16 21 -13 7 4 8 2 4 -5
-10 -15 -11 -184 -2 -199 3 -6 1 -14 -5 -18 -8 -4 -9 -3 -5 4 4 7 2 12 -5 12
-7 0 -9 3 -6 7 4 3 2 12 -4 20 -9 9 -8 13 0 13 6 0 11 4 11 10 0 5 -7 7 -15 4
-10 -4 -15 0 -15 16 0 11 -4 19 -9 16 -12 -8 -68 104 -66 132 1 12 -1 22 -5
22 -9 0 -6 32 5 49 5 10 4 12 -3 7 -8 -5 -11 1 -10 18 3 29 8 32 28 14 12 -11
12 -10 2 3 -6 9 -8 20 -4 24 4 5 1 5 -6 1 -16 -9 -13 25 3 37 6 4 4 11 -5 17
-8 5 -10 10 -5 10 6 0 23 22 39 49 31 52 38 53 66 1z m54 -1746 c3 -8 2 -12
-4 -9 -6 3 -10 10 -10 16 0 14 7 11 14 -7z m-9 -154 c3 -5 1 -10 -4 -10 -6 0
-11 5 -11 10 0 6 2 10 4 10 3 0 8 -4 11 -10z m-1895 -264 c0 -2 -7 -6 -15 -10
-8 -3 -15 -1 -15 4 0 6 7 10 15 10 8 0 15 -2 15 -4z m444 -438 c-3 -4 -9 -8
-15 -8 -5 0 -9 4 -9 8 0 5 7 9 15 9 8 0 12 -4 9 -9z m516 -19 c0 -6 -4 -7 -10
-4 -5 3 -10 11 -10 16 0 6 5 7 10 4 6 -3 10 -11 10 -16z"/>
<path d="M3833 4555 c0 -8 4 -12 9 -9 5 3 6 10 3 15 -9 13 -12 11 -12 -6z"/>
<path d="M3846 3521 c18 -11 35 -24 38 -30 4 -6 12 -11 19 -11 6 0 2 7 -9 16
-13 11 -14 14 -3 11 9 -3 16 1 16 8 0 10 -5 11 -16 5 -10 -5 -23 -3 -36 6 -10
8 -24 14 -29 14 -6 0 3 -9 20 -19z"/>
<path d="M3816 3505 c-3 -8 0 -17 6 -21 7 -4 8 -3 4 4 -8 13 4 16 19 4 13 -9
19 -46 6 -38 -5 4 -12 2 -15 -3 -4 -5 1 -8 10 -7 9 1 20 10 25 19 7 12 2 21
-20 36 -24 17 -30 18 -35 6z"/>
<path d="M3890 3460 c0 -5 5 -10 11 -10 5 0 7 5 4 10 -3 6 -8 10 -11 10 -2 0
-4 -4 -4 -10z"/>
<path d="M3885 3420 c10 -11 20 -20 22 -20 2 0 -2 9 -9 20 -7 11 -17 20 -22
20 -5 0 -1 -9 9 -20z"/>
<path d="M3830 3426 c0 -2 6 -9 14 -15 11 -9 16 -9 22 0 4 8 3 9 -4 5 -7 -4
-12 -2 -12 3 0 6 -4 11 -10 11 -5 0 -10 -2 -10 -4z"/>
<path d="M3828 3348 c5 -5 16 -8 23 -6 8 3 3 7 -10 11 -17 4 -21 3 -13 -5z"/>
<path d="M3870 3333 c0 -6 5 -15 10 -18 6 -4 8 -10 5 -15 -3 -5 -1 -11 4 -14
12 -8 8 14 -7 39 -6 11 -12 15 -12 8z"/>
<path d="M3839 3308 c-9 -30 -6 -37 12 -28 23 13 25 22 2 13 -11 -4 -14 -3 -9
5 4 7 5 12 2 12 -3 0 -6 -1 -7 -2z"/>
<path d="M3873 3273 c4 -6 2 -13 -5 -15 -8 -3 -6 -7 5 -11 23 -9 30 8 10 24
-9 8 -14 9 -10 2z"/>
<path d="M3860 3230 c8 -5 20 -10 25 -10 6 0 3 5 -5 10 -8 5 -19 10 -25 10 -5
0 -3 -5 5 -10z"/>
<path d="M2356 5425 c-3 -8 -1 -15 4 -15 6 0 10 7 10 15 0 8 -2 15 -4 15 -2 0
-6 -7 -10 -15z"/>
<path d="M2326 5388 c3 -4 9 -8 15 -8 5 0 9 4 9 8 0 5 -7 9 -15 9 -8 0 -12 -4
-9 -9z"/>
<path d="M2296 5368 c3 -5 10 -6 15 -3 13 9 11 12 -6 12 -8 0 -12 -4 -9 -9z"/>
<path d="M2361 5354 c0 -11 3 -14 6 -6 3 7 2 16 -1 19 -3 4 -6 -2 -5 -13z"/>
<path d="M2340 5341 c0 -7 -5 -9 -12 -5 -7 5 -8 3 -3 -5 5 -9 10 -10 18 -2 6
6 8 14 4 18 -4 3 -7 1 -7 -6z"/>
<path d="M2295 5310 c-3 -5 -1 -10 4 -10 6 0 11 5 11 10 0 6 -2 10 -4 10 -3 0
-8 -4 -11 -10z"/>
<path d="M2354 5275 c-4 -8 -11 -12 -17 -8 -5 3 -7 1 -3 -5 3 -5 1 -13 -4 -15
-6 -3 -5 -4 1 -3 13 2 46 46 35 46 -4 0 -9 -7 -12 -15z"/>
<path d="M2285 5269 c-3 -4 2 -6 10 -5 21 3 28 13 10 13 -9 0 -18 -4 -20 -8z"/>
<path d="M2270 5212 c0 -5 7 -9 15 -9 8 0 12 4 9 9 -3 4 -9 8 -15 8 -5 0 -9
-4 -9 -8z"/>
<path d="M2316 5171 c-3 -5 1 -14 9 -21 10 -9 15 -9 15 -1 0 6 -5 11 -11 11
-5 0 -7 5 -4 10 3 6 4 10 1 10 -3 0 -7 -4 -10 -9z"/>
<path d="M2276 5152 c-3 -5 1 -9 9 -9 8 0 12 4 9 9 -3 4 -7 8 -9 8 -2 0 -6 -4
-9 -8z"/>
<path d="M2306 5132 c-3 -4 4 -9 15 -9 23 -2 25 3 4 10 -8 4 -16 3 -19 -1z"/>
<path d="M2335 5090 c-3 -5 -2 -10 4 -10 5 0 13 5 16 10 3 6 2 10 -4 10 -5 0
-13 -4 -16 -10z"/>
<path d="M2315 5060 c3 -5 8 -10 11 -10 2 0 4 5 4 10 0 6 -5 10 -11 10 -5 0
-7 -4 -4 -10z"/>
<path d="M2279 5043 c-13 -16 -12 -17 4 -4 16 13 21 21 13 21 -2 0 -10 -8 -17
-17z"/>
<path d="M2319 5023 c-13 -17 -13 -17 6 -3 11 8 22 16 24 17 2 2 0 3 -6 3 -6
0 -17 -8 -24 -17z"/>
<path d="M2297 4999 c7 -7 15 -10 18 -7 3 3 -2 9 -12 12 -14 6 -15 5 -6 -5z"/>
<path d="M2236 4948 c3 -5 10 -6 15 -3 13 9 11 12 -6 12 -8 0 -12 -4 -9 -9z"/>
<path d="M2270 4948 c0 -4 7 -8 15 -8 8 0 15 4 15 8 0 5 -7 9 -15 9 -8 0 -15
-4 -15 -9z"/>
<path d="M2312 4930 c3 -8 -2 -21 -11 -28 -14 -11 -14 -11 3 -5 13 4 17 3 12
-5 -4 -7 -2 -12 4 -12 11 0 6 47 -6 59 -4 3 -5 -1 -2 -9z"/>
<path d="M2255 4879 c-4 -6 -5 -12 -2 -15 2 -3 7 2 10 11 7 17 1 20 -8 4z"/>
<path d="M2295 4861 c-10 -17 17 -24 31 -7 8 9 9 11 2 6 -16 -13 -31 -13 -23
0 3 6 4 10 1 10 -3 0 -7 -4 -11 -9z"/>
<path d="M2190 4846 c0 -2 8 -10 18 -17 15 -13 16 -12 3 4 -13 16 -21 21 -21
13z"/>
<path d="M2256 4828 c3 -4 11 -5 19 -1 21 7 19 12 -4 10 -11 0 -18 -5 -15 -9z"/>
<path d="M2275 4811 c-3 -5 0 -13 6 -17 8 -5 9 -3 4 6 -6 10 -4 12 9 7 10 -4
15 -3 11 3 -8 13 -22 13 -30 1z"/>
<path d="M2257 4763 c-10 -9 -9 -23 1 -23 5 0 9 7 9 15 0 17 -1 18 -10 8z"/>
<path d="M2300 4744 c0 -9 -5 -12 -12 -8 -7 5 -8 3 -3 -6 6 -10 11 -10 20 3 7
9 16 13 20 9 5 -4 5 -1 1 6 -10 17 -26 15 -26 -4z"/>
<path d="M2320 4720 c-14 -10 -21 -22 -17 -26 4 -4 7 -1 7 6 0 7 3 11 6 7 4
-3 13 1 21 9 23 22 11 25 -17 4z"/>
<path d="M2266 4688 c3 -4 9 -8 15 -8 5 0 9 4 9 8 0 5 -7 9 -15 9 -8 0 -12 -4
-9 -9z"/>
<path d="M2356 4675 c-9 -26 -7 -32 5 -12 6 10 9 21 6 23 -2 3 -7 -2 -11 -11z"/>
<path d="M2296 4663 c-6 -14 -5 -15 5 -6 7 7 10 15 7 18 -3 3 -9 -2 -12 -12z"/>
<path d="M2402 4650 c-17 -27 -15 -38 2 -14 8 10 17 16 20 13 3 -3 -3 -15 -14
-27 -21 -22 -21 -22 -1 -19 11 2 28 10 38 19 16 14 21 15 43 3 30 -17 43 -19
38 -4 -2 6 -8 11 -13 11 -6 0 -20 4 -32 9 -15 6 -26 3 -39 -12 -24 -26 -32
-14 -8 13 10 13 15 20 10 16 -5 -4 -14 -4 -20 2 -8 6 -16 3 -24 -10z"/>
<path d="M4954 4618 l-19 -23 23 19 c12 11 22 21 22 23 0 8 -8 2 -26 -19z"/>
<path d="M4853 4604 c-3 -8 -3 -18 1 -21 3 -4 6 1 6 10 0 10 5 14 15 11 8 -4
15 -4 15 -1 0 14 -31 15 -37 1z"/>
<path d="M2370 4591 c0 -6 4 -13 10 -16 6 -3 7 1 4 9 -7 18 -14 21 -14 7z"/>
<path d="M2470 4581 c0 -6 4 -13 10 -16 6 -3 7 1 4 9 -7 18 -14 21 -14 7z"/>
<path d="M4796 4581 c-3 -5 1 -11 9 -14 9 -4 12 -1 8 9 -6 16 -10 17 -17 5z"/>
<path d="M4770 4566 c0 -2 8 -10 18 -17 15 -13 16 -12 3 4 -13 16 -21 21 -21
13z"/>
<path d="M2416 4548 c3 -5 10 -6 15 -3 13 9 11 12 -6 12 -8 0 -12 -4 -9 -9z"/>
<path d="M2492 4551 c-11 -7 -11 -9 0 -14 9 -3 15 1 15 9 0 8 -1 14 -1 14 -1
0 -7 -4 -14 -9z"/>
<path d="M2467 4529 c7 -7 15 -10 18 -7 3 3 -2 9 -12 12 -14 6 -15 5 -6 -5z"/>
<path d="M4670 4526 c0 -2 8 -10 18 -17 15 -13 16 -12 3 4 -13 16 -21 21 -21
13z"/>
<path d="M2510 4516 c0 -2 7 -7 16 -10 8 -3 12 -2 9 4 -6 10 -25 14 -25 6z"/>
<path d="M4750 4510 c0 -5 5 -10 11 -10 5 0 7 5 4 10 -3 6 -8 10 -11 10 -2 0
-4 -4 -4 -10z"/>
<path d="M2504 4472 c4 -3 14 -7 22 -8 9 -1 13 0 10 4 -4 3 -14 7 -22 8 -9 1
-13 0 -10 -4z"/>
<path d="M2593 4434 c0 -17 2 -22 7 -13 5 6 6 18 3 26 -8 19 -10 16 -10 -13z"/>
<path d="M2570 4390 c0 -4 7 -7 15 -6 23 3 26 12 5 13 -11 1 -20 -2 -20 -7z"/>
<path d="M2534 4372 c4 -3 14 -7 22 -8 9 -1 13 0 10 4 -4 3 -14 7 -22 8 -9 1
-13 0 -10 -4z"/>
<path d="M2555 4340 c-3 -6 1 -7 9 -4 18 7 21 14 7 14 -6 0 -13 -4 -16 -10z"/>
<path d="M2557 4303 c3 -7 6 -13 8 -13 2 0 5 6 8 13 3 8 -1 14 -8 14 -7 0 -11
-6 -8 -14z"/>
<path d="M2590 4301 c0 -6 4 -13 10 -16 6 -3 7 1 4 9 -7 18 -14 21 -14 7z"/>
<path d="M2544 4262 c0 -10 6 -19 13 -19 8 0 9 6 2 19 -5 10 -11 18 -12 18 -2
0 -3 -8 -3 -18z"/>
<path d="M2570 4270 c0 -5 5 -10 10 -10 6 0 10 5 10 10 0 6 -4 10 -10 10 -5 0
-10 -4 -10 -10z"/>
<path d="M2593 4235 c4 -8 2 -17 -3 -20 -6 -4 -10 -12 -10 -18 1 -14 23 22 26
41 1 6 -2 12 -8 12 -6 0 -8 -7 -5 -15z"/>
<path d="M2558 4223 c7 -3 16 -2 19 1 4 3 -2 6 -13 5 -11 0 -14 -3 -6 -6z"/>
<path d="M2535 4199 c-4 -6 -5 -12 -2 -15 2 -3 7 2 10 11 7 17 1 20 -8 4z"/>
<path d="M2575 4170 c3 -5 11 -10 16 -10 6 0 7 5 4 10 -3 6 -11 10 -16 10 -6
0 -7 -4 -4 -10z"/>
<path d="M2550 4130 c-8 -5 -10 -10 -5 -10 6 0 17 5 25 10 8 5 11 10 5 10 -5
0 -17 -5 -25 -10z"/>
<path d="M2511 4117 c-8 -10 -7 -14 2 -14 8 0 14 6 14 14 0 7 -1 13 -2 13 -2
0 -8 -6 -14 -13z"/>
<path d="M2455 3959 c-4 -6 -5 -12 -2 -15 2 -3 7 2 10 11 7 17 1 20 -8 4z"/>
<path d="M2430 3906 c0 -2 8 -10 18 -17 15 -13 16 -12 3 4 -13 16 -21 21 -21
13z"/>
<path d="M2470 3860 c-9 -6 -10 -10 -3 -10 6 0 15 5 18 10 8 12 4 12 -15 0z"/>
<path d="M2542 3841 c-10 -6 -10 -10 2 -20 11 -9 16 -9 22 0 5 8 3 9 -6 4 -10
-6 -12 -4 -7 8 7 19 7 20 -11 8z"/>
<path d="M2519 3808 c-1 -7 -1 -19 0 -27 2 -8 -2 -10 -10 -5 -8 4 -10 3 -5 -5
11 -17 24 -5 24 24 0 26 -7 35 -9 13z"/>
<path d="M2540 3790 c0 -5 7 -7 15 -4 8 4 15 8 15 10 0 2 -7 4 -15 4 -8 0 -15
-4 -15 -10z"/>
<path d="M2548 3769 c-20 -11 -24 -29 -7 -29 5 0 7 5 4 10 -6 9 8 14 28 11 4
0 7 4 7 9 0 13 -10 12 -32 -1z"/>
<path d="M2470 3756 c0 -2 7 -7 16 -10 8 -3 12 -2 9 4 -6 10 -25 14 -25 6z"/>
<path d="M2517 3725 c6 -18 5 -19 -13 -5 -18 14 -18 14 -5 -2 7 -10 17 -16 21
-13 5 3 11 -1 13 -7 3 -7 6 -8 6 -2 1 5 -6 19 -14 30 -15 19 -15 19 -8 -1z"/>
<path d="M2553 3690 c0 -21 4 -37 8 -34 8 4 4 62 -4 70 -2 2 -4 -14 -4 -36z"/>
<path d="M2489 3673 c-13 -16 -12 -17 4 -4 9 7 17 15 17 17 0 8 -8 3 -21 -13z"/>
<path d="M2436 3668 c3 -5 10 -6 15 -3 13 9 11 12 -6 12 -8 0 -12 -4 -9 -9z"/>
<path d="M2520 3665 c-7 -9 -8 -15 -2 -15 5 0 12 7 16 15 3 8 4 15 2 15 -2 0
-9 -7 -16 -15z"/>
<path d="M2519 3623 c-13 -17 -13 -17 6 -3 11 8 22 16 24 17 2 2 0 3 -6 3 -6
0 -17 -8 -24 -17z"/>
<path d="M2490 3613 c0 -6 7 -16 15 -23 8 -7 12 -16 9 -21 -3 -5 0 -9 5 -9 16
0 14 9 -9 37 -11 14 -20 21 -20 16z"/>
<path d="M2539 3555 c-1 -3 -2 -8 -3 -12 -4 -22 -18 -33 -30 -24 -8 7 -12 5
-12 -8 0 -13 5 -17 16 -13 15 6 32 26 30 38 -1 4 4 11 12 15 10 7 10 9 1 9 -7
0 -14 -2 -14 -5z"/>
<path d="M2450 3530 c0 -5 5 -10 11 -10 5 0 7 5 4 10 -3 6 -8 10 -11 10 -2 0
-4 -4 -4 -10z"/>
<path d="M2535 3490 c-3 -5 -2 -10 4 -10 5 0 13 5 16 10 3 6 2 10 -4 10 -5 0
-13 -4 -16 -10z"/>
<path d="M2483 3468 c-3 -6 -1 -8 5 -4 5 3 13 0 15 -6 4 -10 6 -10 6 0 1 8 6
10 14 6 6 -4 8 -3 4 1 -12 13 -36 15 -44 3z"/>
<path d="M2535 3449 c-4 -6 -5 -12 -2 -15 2 -3 7 2 10 11 7 17 1 20 -8 4z"/>
<path d="M2511 3424 c0 -11 3 -14 6 -6 3 7 2 16 -1 19 -3 4 -6 -2 -5 -13z"/>
<path d="M2075 3079 c-4 -6 -5 -12 -2 -15 2 -3 7 2 10 11 7 17 1 20 -8 4z"/>
<path d="M2135 3065 c0 -13 3 -21 8 -18 4 2 7 10 7 18 0 8 -3 16 -7 18 -5 3
-8 -5 -8 -18z"/>
<path d="M2109 3053 c-13 -16 -12 -17 4 -4 9 7 17 15 17 17 0 8 -8 3 -21 -13z"/>
<path d="M2153 3018 c-2 -18 0 -20 7 -8 12 18 13 30 2 30 -4 0 -9 -10 -9 -22z"/>
<path d="M2100 2961 c0 -6 4 -13 10 -16 6 -3 7 1 4 9 -7 18 -14 21 -14 7z"/>
<path d="M2140 2925 c8 -9 9 -15 2 -15 -6 0 -14 5 -17 10 -3 6 -11 10 -18 10
-6 0 -1 -7 11 -16 12 -8 26 -13 32 -9 11 7 2 35 -12 35 -6 0 -5 -6 2 -15z"/>
<path d="M2080 2830 c-12 -7 -10 -9 7 -7 12 0 19 5 17 9 -6 10 -6 10 -24 -2z"/>
<path d="M2110 2810 c-13 -8 -12 -10 3 -10 9 0 17 5 17 10 0 12 -1 12 -20 0z"/>
<path d="M2075 2800 c-4 -6 -12 -7 -18 -4 -7 4 -8 3 -4 -1 13 -15 34 -14 34 1
0 17 -4 18 -12 4z"/>
<path d="M2114 2769 c-3 -6 -3 -13 0 -16 3 -4 6 -1 6 5 0 6 7 9 15 6 8 -4 15
-4 15 -1 0 11 -30 16 -36 6z"/>
<path d="M2091 2714 c0 -11 3 -14 6 -6 3 7 2 16 -1 19 -3 4 -6 -2 -5 -13z"/>
<path d="M2093 2668 c-1 -11 1 -16 5 -12 4 5 11 12 15 15 5 3 2 9 -5 12 -9 3
-14 -3 -15 -15z"/>
<path d="M2110 2650 c0 -5 5 -10 11 -10 5 0 7 5 4 10 -3 6 -8 10 -11 10 -2 0
-4 -4 -4 -10z"/>
<path d="M2095 2621 c-3 -5 0 -13 6 -17 7 -4 9 -3 5 4 -3 6 2 13 11 15 16 4
16 5 1 6 -9 0 -19 -3 -23 -8z"/>
<path d="M2059 2583 c-13 -17 -13 -17 6 -3 11 8 22 16 24 17 2 2 0 3 -6 3 -6
0 -17 -8 -24 -17z"/>
<path d="M2100 2581 c0 -7 -5 -9 -12 -5 -7 5 -8 3 -3 -5 5 -9 10 -10 18 -2 6
6 8 14 4 18 -4 3 -7 1 -7 -6z"/>
<path d="M2111 2544 c0 -11 3 -14 6 -6 3 7 2 16 -1 19 -3 4 -6 -2 -5 -13z"/>
<path d="M2033 2533 c4 -3 1 -13 -6 -22 -11 -14 -10 -14 5 -2 16 12 16 31 1
31 -4 0 -3 -3 0 -7z"/>
<path d="M2066 2529 c3 -6 0 -18 -7 -27 -10 -12 -7 -12 11 3 14 11 26 20 28
21 1 1 -6 4 -18 7 -11 3 -17 1 -14 -4z"/>
<path d="M2064 2475 c-18 -14 -18 -14 4 -8 12 3 22 9 22 14 0 12 -3 11 -26 -6z"/>
<path d="M2111 2474 c0 -11 3 -14 6 -6 3 7 2 16 -1 19 -3 4 -6 -2 -5 -13z"/>
<path d="M2075 2421 c-3 -5 0 -13 6 -17 7 -4 9 -3 5 4 -3 5 0 13 6 15 9 4 10
6 1 6 -6 1 -14 -3 -18 -8z"/>
<path d="M2041 2406 c-9 -11 -9 -16 1 -22 7 -4 10 -4 6 1 -4 4 -3 14 3 22 6 7
9 13 6 13 -2 0 -10 -6 -16 -14z"/>
<path d="M2067 2336 c-4 -10 -3 -15 3 -11 6 3 10 1 10 -6 0 -7 3 -10 6 -6 3 3
2 13 -4 22 -8 16 -9 16 -15 1z"/>
<path d="M2015 2330 c-3 -5 -1 -10 4 -10 6 0 11 5 11 10 0 6 -2 10 -4 10 -3 0
-8 -4 -11 -10z"/>
<path d="M2095 2299 c-4 -6 -5 -12 -2 -15 2 -3 7 2 10 11 7 17 1 20 -8 4z"/>
<path d="M2015 2290 c3 -5 8 -10 11 -10 2 0 4 5 4 10 0 6 -5 10 -11 10 -5 0
-7 -4 -4 -10z"/>
<path d="M2066 2286 c5 -13 4 -17 -4 -12 -8 5 -10 2 -5 -10 6 -15 7 -15 16 1
6 11 5 21 -3 28 -8 9 -9 7 -4 -7z"/>
<path d="M2040 2165 c-10 -12 -10 -18 0 -30 15 -18 30 -11 30 15 0 26 -15 33
-30 15z m20 -17 c0 -16 -3 -19 -11 -11 -6 6 -8 16 -5 22 11 17 16 13 16 -11z"/>
<path d="M2010 2109 c0 -5 5 -7 10 -4 6 3 10 8 10 11 0 2 -4 4 -10 4 -5 0 -10
-5 -10 -11z"/>
<path d="M2061 2106 c-9 -10 -9 -16 -1 -21 6 -4 14 -4 17 -1 4 3 1 6 -7 6 -10
0 -10 3 0 15 7 8 10 15 7 15 -2 0 -10 -6 -16 -14z"/>
<path d="M1946 2068 c3 -5 10 -6 15 -3 13 9 11 12 -6 12 -8 0 -12 -4 -9 -9z"/>
<path d="M1995 2061 c-3 -5 -2 -12 3 -15 5 -3 9 1 9 9 0 17 -3 19 -12 6z"/>
<path d="M2020 2001 c0 -6 4 -13 10 -16 6 -3 7 1 4 9 -7 18 -14 21 -14 7z"/>
<path d="M2055 1970 c3 -5 11 -10 16 -10 6 0 7 5 4 10 -3 6 -11 10 -16 10 -6
0 -7 -4 -4 -10z"/>
<path d="M1991 1957 c-8 -10 -7 -14 2 -14 8 0 14 6 14 14 0 7 -1 13 -2 13 -2
0 -8 -6 -14 -13z"/>
<path d="M2034 1905 c0 -14 3 -25 7 -25 3 0 7 11 7 25 0 14 -4 25 -7 25 -4 0
-7 -11 -7 -25z"/>
<path d="M1949 1873 c-13 -16 -12 -17 4 -4 9 7 17 15 17 17 0 8 -8 3 -21 -13z"/>
<path d="M2035 1849 c6 -9 3 -11 -9 -6 -10 4 -15 3 -11 -4 4 -5 16 -7 27 -3
14 4 18 2 14 -5 -4 -6 -2 -11 3 -11 19 0 12 19 -10 31 -17 9 -20 8 -14 -2z"/>
<path d="M1975 1799 c-4 -6 -5 -12 -2 -15 2 -3 7 2 10 11 7 17 1 20 -8 4z"/>
<path d="M1993 1775 c0 -8 4 -12 9 -9 5 3 6 10 3 15 -9 13 -12 11 -12 -6z"/>
<path d="M2030 1750 c0 -5 7 -7 15 -4 8 4 15 8 15 10 0 2 -7 4 -15 4 -8 0 -15
-4 -15 -10z"/>
<path d="M1997 1722 c4 -10 2 -13 -5 -8 -17 10 -15 1 4 -14 8 -8 14 -9 13 -4
-4 22 2 35 14 28 6 -4 8 -3 4 1 -14 16 -36 14 -30 -3z"/>
<path d="M2034 1709 c-3 -6 -2 -15 3 -20 5 -5 9 -1 9 11 0 23 -2 24 -12 9z"/>
<path d="M1956 1663 c-6 -14 -5 -15 5 -6 7 7 10 15 7 18 -3 3 -9 -2 -12 -12z"/>
<path d="M1999 1663 c-12 -16 -12 -17 2 -6 9 7 19 10 22 6 4 -3 7 -1 7 5 0 17
-16 15 -31 -5z"/>
<path d="M1956 1632 c-3 -5 1 -9 9 -9 8 0 12 4 9 9 -3 4 -7 8 -9 8 -2 0 -6 -4
-9 -8z"/>
<path d="M3952 1631 c-11 -7 -11 -9 0 -14 9 -3 15 1 15 9 0 8 -1 14 -1 14 -1
0 -7 -4 -14 -9z"/>
<path d="M1950 1591 c0 -6 4 -13 10 -16 6 -3 7 1 4 9 -7 18 -14 21 -14 7z"/>
<path d="M3936 1591 c-4 -5 3 -7 14 -4 23 6 26 13 6 13 -8 0 -17 -4 -20 -9z"/>
<path d="M3950 1570 c0 -5 5 -10 11 -10 5 0 7 5 4 10 -3 6 -8 10 -11 10 -2 0
-4 -4 -4 -10z"/>
<path d="M1940 1556 c0 -2 8 -10 18 -17 15 -13 16 -12 3 4 -13 16 -21 21 -21
13z"/>
<path d="M2000 1541 c0 -7 -4 -9 -10 -6 -6 4 -7 -1 -3 -11 6 -15 7 -15 15 1 6
9 7 19 4 22 -3 4 -6 1 -6 -6z"/>
<path d="M3956 1535 c7 -18 6 -18 -9 -6 -11 9 -17 10 -17 2 0 -6 5 -11 11 -11
5 0 7 -5 3 -12 -4 -7 -3 -8 4 -4 18 11 14 -4 -6 -22 -9 -10 -13 -14 -8 -9 21
15 28 6 11 -13 -20 -22 -12 -28 9 -7 14 13 16 80 3 93 -4 5 -5 0 -1 -11z"/>
<path d="M1993 1438 c-2 -18 0 -20 7 -8 12 18 13 30 2 30 -4 0 -9 -10 -9 -22z"/>
<path d="M3961 1443 c-1 -6 -4 -20 -7 -30 -5 -17 -5 -17 6 0 6 10 9 23 6 30
-3 9 -5 9 -5 0z"/>
<path d="M1915 1430 c3 -5 8 -10 11 -10 2 0 4 5 4 10 0 6 -5 10 -11 10 -5 0
-7 -4 -4 -10z"/>
<path d="M1978 1392 c-5 -19 -4 -20 13 -11 10 5 19 12 19 15 0 3 -4 3 -9 0 -5
-4 -11 -1 -13 6 -3 7 -7 3 -10 -10z"/>
<path d="M3961 1389 c-7 -12 -10 -23 -8 -26 3 -3 11 5 17 17 15 28 8 35 -9 9z"/>
<path d="M3914 1388 c-4 -6 -3 -8 4 -4 5 3 13 0 15 -6 3 -8 6 -6 6 5 1 19 -14
23 -25 5z"/>
<path d="M2020 1380 c-8 -5 -12 -12 -9 -15 4 -3 12 1 19 10 14 17 11 19 -10 5z"/>
<path d="M1954 1340 c0 -9 6 -17 12 -17 7 0 10 7 6 15 -4 11 -1 13 9 7 8 -5
11 -4 6 0 -14 16 -33 13 -33 -5z"/>
<path d="M3934 1344 c2 -10 9 -18 16 -16 7 2 9 -5 5 -20 -5 -21 -5 -21 6 -4 9
15 7 22 -9 39 -20 19 -21 19 -18 1z"/>
<path d="M3970 1351 c0 -5 7 -11 14 -14 10 -4 13 -1 9 9 -6 15 -23 19 -23 5z"/>
<path d="M2012 1334 c10 -10 20 -15 24 -12 3 4 -5 12 -18 18 -22 12 -22 12 -6
-6z"/>
<path d="M3895 1319 c-4 -6 -5 -12 -2 -15 2 -3 7 2 10 11 7 17 1 20 -8 4z"/>
<path d="M3976 1305 c-3 -8 -1 -15 4 -15 6 0 10 7 10 15 0 8 -2 15 -4 15 -2 0
-6 -7 -10 -15z"/>
<path d="M2031 1303 c4 -21 -2 -34 -12 -28 -6 4 -5 -2 2 -13 7 -12 17 -18 21
-16 11 7 10 -7 -1 -25 -7 -11 -11 -10 -19 5 -6 10 -14 16 -18 12 -4 -5 -14 -2
-23 5 -14 11 -14 10 -2 -5 7 -10 16 -16 20 -14 3 2 15 -6 26 -17 18 -18 18
-19 2 -14 -11 4 -16 3 -12 -4 4 -6 13 -8 21 -5 8 3 17 -1 20 -9 4 -8 10 -12
16 -9 5 3 0 13 -11 21 -18 12 -19 18 -10 35 9 17 8 24 -4 33 -11 7 -12 16 -6
27 6 11 5 19 -1 23 -6 4 -10 3 -9 -2z"/>
<path d="M1961 1278 c9 -16 29 -17 29 -2 0 3 -5 2 -12 -2 -7 -5 -9 -2 -6 8 4
8 0 15 -7 15 -10 0 -11 -5 -4 -19z"/>
<path d="M1998 1293 c7 -3 16 -2 19 1 4 3 -2 6 -13 5 -11 0 -14 -3 -6 -6z"/>
<path d="M3926 1272 c-3 -5 1 -9 9 -9 8 0 15 4 15 9 0 4 -4 8 -9 8 -6 0 -12
-4 -15 -8z"/>
<path d="M3981 1263 c-7 -8 -11 -16 -8 -19 2 -2 10 2 17 11 17 20 9 27 -9 8z"/>
<path d="M3952 1230 c0 -14 2 -19 5 -12 2 6 2 18 0 25 -3 6 -5 1 -5 -13z"/>
<path d="M1936 1223 c-6 -14 -5 -15 5 -6 7 7 10 15 7 18 -3 3 -9 -2 -12 -12z"/>
<path d="M3990 1230 c0 -5 5 -10 10 -10 6 0 10 5 10 10 0 6 -4 10 -10 10 -5 0
-10 -4 -10 -10z"/>
<path d="M2060 1211 c0 -6 4 -13 10 -16 6 -3 7 1 4 9 -7 18 -14 21 -14 7z"/>
<path d="M3920 1190 c-12 -7 -10 -9 8 -7 12 0 22 5 22 9 0 11 -12 10 -30 -2z"/>
<path d="M1994 1156 c0 -32 14 -41 33 -22 4 4 1 6 -7 4 -9 -2 -14 5 -15 19 0
36 -11 35 -11 -1z"/>
<path d="M1956 1168 c3 -5 10 -6 15 -3 13 9 11 12 -6 12 -8 0 -12 -4 -9 -9z"/>
<path d="M3990 1173 c0 -6 9 -22 20 -35 18 -24 18 -38 -2 -38 -5 0 -6 5 -3 10
3 6 1 10 -4 10 -14 0 -14 -17 0 -26 6 -3 17 0 24 7 10 11 8 20 -11 48 -13 19
-24 29 -24 24z"/>
<path d="M2040 1155 c0 -8 4 -15 10 -15 5 0 7 7 4 15 -4 8 -8 15 -10 15 -2 0
-4 -7 -4 -15z"/>
<path d="M3966 1148 c17 -19 17 -21 2 -15 -10 4 -18 2 -18 -3 0 -13 27 -13 35
-1 3 5 -2 17 -11 25 -23 24 -30 19 -8 -6z"/>
<path d="M2075 1150 c-3 -5 -1 -10 4 -10 6 0 11 5 11 10 0 6 -2 10 -4 10 -3 0
-8 -4 -11 -10z"/>
<path d="M3910 1146 c7 -7 13 -7 20 0 6 6 3 10 -10 10 -13 0 -16 -4 -10 -10z"/>
<path d="M2061 1113 c-1 -17 -6 -21 -18 -17 -15 5 -16 4 -3 -5 19 -13 33 1 27
25 -4 16 -5 15 -6 -3z"/>
<path d="M2089 1123 c-2 -12 -6 -28 -8 -33 -1 -3 -4 -16 -7 -30 -3 -18 -2 -21
5 -10 5 8 7 18 5 22 -3 5 2 11 11 14 13 5 13 9 3 22 -11 13 -9 14 12 8 19 -6
21 -5 10 3 -18 13 -30 14 -31 4z"/>
<path d="M1996 1088 c3 -5 10 -6 15 -3 13 9 11 12 -6 12 -8 0 -12 -4 -9 -9z"/>
<path d="M3965 1090 c-3 -5 -1 -18 5 -27 9 -15 10 -14 4 6 -4 17 -3 21 6 16 9
-5 11 -4 6 3 -9 15 -13 15 -21 2z"/>
<path d="M2102 1073 c0 -5 -2 -16 -7 -26 -4 -10 -5 -21 -1 -24 3 -4 6 1 6 9 0
11 6 14 20 11 11 -3 20 0 20 6 0 5 -7 8 -15 5 -11 -5 -13 -2 -9 10 3 9 1 16
-5 16 -6 0 -10 -3 -9 -7z"/>
<path d="M2178 1037 c-7 -8 -20 -16 -27 -18 -8 -3 -15 -13 -17 -22 -1 -9 2
-15 7 -11 5 3 6 10 3 16 -5 7 -2 9 8 6 8 -4 20 2 27 13 6 11 16 17 21 14 6 -3
10 -1 10 4 0 15 -16 14 -32 -2z"/>
<path d="M3990 1030 c14 -9 6 -15 -15 -10 -5 1 -7 -2 -2 -6 4 -4 16 -8 27 -9
15 -1 17 2 9 17 -5 10 -15 18 -22 18 -7 0 -6 -4 3 -10z"/>
<path d="M2248 991 c-7 -10 -17 -19 -23 -19 -13 -1 -19 -32 -6 -32 6 0 7 7 4
17 -4 10 -2 14 5 9 6 -3 15 1 20 10 6 11 11 13 16 5 4 -6 13 -11 19 -11 7 0 4
5 -6 11 -9 6 -15 14 -12 20 11 17 -4 9 -17 -10z"/>
<path d="M2070 991 c0 -6 4 -13 10 -16 6 -3 7 1 4 9 -7 18 -14 21 -14 7z"/>
<path d="M2307 994 c-7 -8 3 -34 13 -34 4 0 10 7 13 14 4 11 1 13 -10 9 -11
-4 -14 -2 -9 5 8 13 3 16 -7 6z"/>
<path d="M4186 990 c6 -8 9 -28 8 -45 -2 -20 0 -25 5 -16 5 8 7 21 4 29 -5 12
-2 12 15 3 33 -17 26 -5 -10 20 -18 13 -28 17 -22 9z"/>
<path d="M2355 980 c-3 -5 -1 -10 4 -10 6 0 11 5 11 10 0 6 -2 10 -4 10 -3 0
-8 -4 -11 -10z"/>
<path d="M2717 983 c-4 -3 -7 -11 -7 -17 0 -6 5 -5 12 2 6 6 9 14 7 17 -3 3
-9 2 -12 -2z"/>
<path d="M2430 969 c0 -5 5 -7 11 -3 7 4 9 0 5 -14 -4 -11 -2 -23 3 -27 7 -4
8 1 4 11 -5 12 -3 15 6 9 10 -6 11 -3 2 14 -12 22 -31 29 -31 10z"/>
<path d="M2550 970 c0 -6 4 -9 9 -5 5 3 12 -5 14 -17 5 -22 5 -21 4 1 -2 24
-27 44 -27 21z"/>
<path d="M3513 960 c-1 -11 1 -22 5 -24 4 -2 8 7 8 20 1 13 -1 24 -5 24 -4 0
-7 -9 -8 -20z"/>
<path d="M4028 973 c6 -2 18 -2 25 0 6 3 1 5 -13 5 -14 0 -19 -2 -12 -5z"/>
<path d="M4080 960 c6 -11 13 -20 16 -20 2 0 0 9 -6 20 -6 11 -13 20 -16 20
-2 0 0 -9 6 -20z"/>
<path d="M5253 965 c0 -8 4 -12 9 -9 5 3 6 10 3 15 -9 13 -12 11 -12 -6z"/>
<path d="M2658 963 c6 -2 9 -10 6 -15 -4 -7 -2 -8 5 -4 13 9 5 26 -12 25 -9 0
-8 -2 1 -6z"/>
<path d="M2691 954 c0 -11 3 -14 6 -6 3 7 2 16 -1 19 -3 4 -6 -2 -5 -13z"/>
<path d="M2737 963 c-10 -10 -8 -23 4 -23 5 0 7 5 3 11 -4 8 1 9 17 4 19 -5
21 -4 9 4 -18 13 -24 13 -33 4z"/>
<path d="M2830 959 c-12 -8 -10 -9 9 -4 16 5 21 4 17 -4 -4 -6 -2 -11 4 -11
13 0 8 22 -6 27 -5 1 -16 -2 -24 -8z"/>
<path d="M2930 959 c0 -5 5 -7 10 -4 6 3 10 8 10 11 0 2 -4 4 -10 4 -5 0 -10
-5 -10 -11z"/>
<path d="M3040 960 c-8 -5 -10 -10 -5 -10 6 0 17 5 25 10 8 5 11 10 5 10 -5 0
-17 -5 -25 -10z"/>
<path d="M3135 960 c3 -5 8 -10 11 -10 2 0 4 5 4 10 0 6 -5 10 -11 10 -5 0 -7
-4 -4 -10z"/>
<path d="M3186 959 c2 -4 12 -5 21 -2 11 4 14 3 9 -5 -4 -7 -2 -12 4 -12 21 0
4 25 -18 26 -12 1 -19 -2 -16 -7z"/>
<path d="M3280 960 c-8 -5 -10 -10 -5 -10 6 0 17 5 25 10 8 5 11 10 5 10 -5 0
-17 -5 -25 -10z"/>
<path d="M3397 952 c3 -7 9 -10 12 -5 3 4 10 11 15 15 4 4 -1 6 -12 5 -12 -1
-18 -6 -15 -15z"/>
<path d="M4440 964 c0 -6 7 -19 15 -30 8 -10 14 -14 14 -9 0 6 -6 19 -14 29
-8 11 -15 15 -15 10z"/>
<path d="M4616 956 c7 -19 39 -22 50 -4 5 8 2 9 -11 5 -9 -4 -24 -2 -31 4 -12
10 -13 9 -8 -5z"/>
<path d="M2060 956 c0 -2 8 -10 18 -17 15 -13 16 -12 3 4 -13 16 -21 21 -21
13z"/>
<path d="M2160 950 c-12 -7 -10 -9 7 -7 12 0 19 5 17 9 -6 10 -6 10 -24 -2z"/>
<path d="M2250 951 c0 -4 11 -7 25 -7 14 0 25 3 25 7 0 3 -11 7 -25 7 -14 0
-25 -4 -25 -7z"/>
<path d="M2490 950 c0 -5 5 -10 10 -10 6 0 10 5 10 10 0 6 -4 10 -10 10 -5 0
-10 -4 -10 -10z"/>
<path d="M2600 945 c-19 -22 -8 -25 13 -3 9 10 13 18 8 18 -5 0 -14 -7 -21
-15z"/>
<path d="M2954 949 c-3 -6 -1 -16 5 -22 9 -9 11 -8 5 6 -5 13 -2 16 10 11 9
-3 16 -4 16 -1 0 11 -30 16 -36 6z"/>
<path d="M3071 950 c-9 -5 -4 -7 13 -7 29 0 32 2 13 10 -8 3 -20 2 -26 -3z"/>
<path d="M3161 944 c0 -11 3 -14 6 -6 3 7 2 16 -1 19 -3 4 -6 -2 -5 -13z"/>
<path d="M3435 950 c-3 -5 -1 -10 4 -10 6 0 11 5 11 10 0 6 -2 10 -4 10 -3 0
-8 -4 -11 -10z"/>
<path d="M4691 938 c8 -15 13 -16 29 -6 10 7 17 14 15 17 -3 2 -12 -2 -22 -10
-15 -12 -16 -12 -11 2 4 9 1 16 -7 16 -10 0 -11 -5 -4 -19z"/>
<path d="M4753 939 c-2 -23 3 -25 10 -4 4 8 3 16 -1 19 -4 3 -9 -4 -9 -15z"/>
<path d="M4913 936 c-1 -11 1 -15 4 -9 3 9 10 10 24 3 27 -15 24 -5 -4 13 -21
14 -23 13 -24 -7z"/>
<path d="M4957 949 c7 -7 15 -10 18 -7 3 3 -2 9 -12 12 -14 6 -15 5 -6 -5z"/>
<path d="M5020 951 c0 -5 7 -12 16 -15 14 -5 15 -4 4 9 -14 17 -20 19 -20 6z"/>
<path d="M2319 948 c-5 -18 -6 -38 -1 -34 7 8 12 36 6 36 -2 0 -4 -1 -5 -2z"/>
<path d="M2910 941 c0 -7 -5 -9 -12 -5 -7 5 -8 3 -3 -5 5 -9 10 -10 18 -2 6 6
8 14 4 18 -4 3 -7 1 -7 -6z"/>
<path d="M3118 938 c-7 -17 15 -19 29 -3 4 4 3 5 -4 2 -6 -4 -13 -2 -15 5 -3
8 -6 6 -10 -4z"/>
<path d="M4148 943 c6 -2 18 -2 25 0 6 3 1 5 -13 5 -14 0 -19 -2 -12 -5z"/>
<path d="M5108 943 c6 -2 18 -2 25 0 6 3 1 5 -13 5 -14 0 -19 -2 -12 -5z"/>
<path d="M2536 928 c5 -7 2 -9 -7 -6 -10 4 -15 -1 -15 -13 0 -17 2 -17 18 -2
15 14 16 33 2 33 -3 0 -2 -5 2 -12z"/>
<path d="M2613 928 c-3 -7 -1 -8 5 -4 11 7 17 -6 13 -27 -1 -5 3 -6 9 -2 6 3
8 10 5 15 -3 4 0 10 7 12 7 3 2 7 -10 10 -12 4 -25 1 -29 -4z"/>
<path d="M2819 938 c-9 -30 -6 -37 12 -28 23 13 25 22 2 13 -11 -4 -14 -3 -9
5 4 7 5 12 2 12 -3 0 -6 -1 -7 -2z"/>
<path d="M3030 930 c0 -5 5 -10 10 -10 6 0 10 5 10 10 0 6 -4 10 -10 10 -5 0
-10 -4 -10 -10z"/>
<path d="M3270 930 c0 -5 5 -10 10 -10 6 0 10 5 10 10 0 6 -4 10 -10 10 -5 0
-10 -4 -10 -10z"/>
<path d="M3460 935 c0 -2 6 -8 13 -14 10 -8 14 -7 14 2 0 8 -6 14 -14 14 -7 0
-13 -1 -13 -2z"/>
<path d="M4215 929 c-4 -6 -5 -12 -2 -15 2 -3 7 2 10 11 7 17 1 20 -8 4z"/>
<path d="M4273 922 c-8 -14 -8 -19 1 -19 7 0 13 9 13 19 1 10 1 18 0 18 -1 0
-7 -8 -14 -18z"/>
<path d="M4350 930 c0 -5 3 -9 8 -9 20 3 22 -3 5 -18 -10 -10 -13 -14 -6 -10
6 5 18 5 24 1 8 -4 9 -3 5 4 -4 7 -2 12 5 12 7 0 4 7 -7 15 -23 17 -34 19 -34
5z"/>
<path d="M4517 925 c-4 -8 -3 -16 1 -19 4 -3 9 4 9 15 2 23 -3 25 -10 4z"/>
<path d="M4673 923 c0 -11 7 -20 14 -20 10 0 10 4 1 16 -7 9 -13 18 -15 20 -1
2 -1 -5 0 -16z"/>
<path d="M4990 930 c0 -5 5 -10 10 -10 6 0 10 5 10 10 0 6 -4 10 -10 10 -5 0
-10 -4 -10 -10z"/>
<path d="M2234 919 c-3 -6 2 -18 12 -27 17 -16 17 -16 5 0 -7 9 -10 22 -6 28
3 5 4 10 1 10 -3 0 -8 -5 -12 -11z"/>
<path d="M2751 914 c0 -11 3 -14 6 -6 3 7 2 16 -1 19 -3 4 -6 -2 -5 -13z"/>
<path d="M2873 915 c0 -8 4 -15 9 -15 4 0 8 4 8 9 0 6 -4 12 -8 15 -5 3 -9 -1
-9 -9z"/>
<path d="M2986 913 c-6 -14 -5 -15 5 -6 7 7 10 15 7 18 -3 3 -9 -2 -12 -12z"/>
<path d="M3080 921 c0 -6 4 -13 10 -16 6 -3 7 1 4 9 -7 18 -14 21 -14 7z"/>
<path d="M3195 921 c-3 -6 -14 -8 -24 -6 -10 2 -18 -3 -18 -11 0 -8 4 -10 11
-5 6 5 18 7 27 6 9 -2 16 4 16 11 0 16 -4 18 -12 5z"/>
<path d="M3226 913 c-6 -14 -5 -15 5 -6 7 7 10 15 7 18 -3 3 -9 -2 -12 -12z"/>
<path d="M3320 921 c0 -6 4 -13 10 -16 6 -3 7 1 4 9 -7 18 -14 21 -14 7z"/>
<path d="M3397 923 c-10 -10 -8 -23 4 -23 5 0 8 4 5 9 -4 5 0 12 6 14 7 3 8 6
2 6 -6 1 -14 -2 -17 -6z"/>
<path d="M4770 916 c0 -8 4 -17 9 -20 5 -4 7 3 4 14 -6 23 -13 26 -13 6z"/>
<path d="M5050 920 c-9 -6 -10 -10 -3 -10 6 0 15 5 18 10 8 12 4 12 -15 0z"/>
<path d="M2150 916 c0 -2 7 -7 16 -10 8 -3 12 -2 9 4 -6 10 -25 14 -25 6z"/>
<path d="M2377 905 c-4 -8 -3 -16 1 -19 4 -3 9 4 9 15 2 23 -3 25 -10 4z"/>
<path d="M2555 911 c-3 -5 -2 -12 3 -15 5 -3 9 1 9 9 0 17 -3 19 -12 6z"/>
<path d="M3299 918 c-5 -18 -6 -38 -1 -34 7 8 12 36 6 36 -2 0 -4 -1 -5 -2z"/>
<path d="M4110 911 c0 -6 4 -12 8 -15 5 -3 9 1 9 9 0 8 -4 15 -9 15 -4 0 -8
-4 -8 -9z"/>
<path d="M4310 913 c7 -3 8 -9 1 -17 -8 -9 -7 -13 3 -13 17 0 14 30 -3 33 -7
2 -7 0 -1 -3z"/>
<path d="M4430 911 c0 -5 8 -15 18 -22 15 -12 16 -12 5 2 -7 9 -10 19 -6 22 3
4 1 7 -5 7 -7 0 -12 -4 -12 -9z"/>
<path d="M4540 912 c0 -5 7 -9 15 -9 8 0 12 4 9 9 -3 4 -9 8 -15 8 -5 0 -9 -4
-9 -8z"/>
<path d="M4615 911 c-3 -5 0 -13 6 -17 7 -4 9 -3 5 4 -3 6 3 12 16 15 23 4 23
4 1 6 -12 0 -24 -3 -28 -8z"/>
<path d="M4716 904 c-5 -14 -4 -15 9 -4 17 14 19 20 6 20 -5 0 -12 -7 -15 -16z"/>
<path d="M4827 898 c-5 -21 -5 -21 7 -6 10 14 15 15 26 5 12 -10 12 -9 1 6
-18 23 -28 22 -34 -5z"/>
<path d="M4885 910 c3 -5 8 -10 11 -10 2 0 4 5 4 10 0 6 -5 10 -11 10 -5 0 -7
-4 -4 -10z"/>
<path d="M4933 905 c0 -8 4 -12 9 -9 5 3 6 10 3 15 -9 13 -12 11 -12 -6z"/>
<path d="M5089 907 c6 -8 7 -18 3 -22 -4 -5 -1 -5 6 -1 10 6 10 11 1 22 -6 8
-14 14 -16 14 -3 0 0 -6 6 -13z"/>
<path d="M2333 895 c0 -8 4 -12 9 -9 5 3 6 10 3 15 -9 13 -12 11 -12 -6z"/>
<path d="M2955 901 c-3 -5 -2 -12 3 -15 5 -3 9 1 9 9 0 17 -3 19 -12 6z"/>
<path d="M3111 903 c-1 -17 16 -25 25 -12 4 7 3 9 -4 5 -5 -3 -13 0 -15 6 -4
9 -6 10 -6 1z"/>
<path d="M2706 888 c3 -5 10 -6 15 -3 13 9 11 12 -6 12 -8 0 -12 -4 -9 -9z"/>
<path d="M4740 890 c-9 -6 -10 -10 -3 -10 6 0 15 5 18 10 8 12 4 12 -15 0z"/>
<path d="M4476 877 c3 -10 9 -15 12 -12 3 3 0 11 -7 18 -10 9 -11 8 -5 -6z"/>
<path d="M4789 873 c-13 -16 -12 -17 4 -4 16 13 21 21 13 21 -2 0 -10 -8 -17
-17z"/>
<path d="M4890 886 c0 -2 8 -10 18 -17 15 -13 16 -12 3 4 -13 16 -21 21 -21
13z"/>
<path d="M4230 872 c0 -5 7 -9 15 -9 8 0 12 4 9 9 -3 4 -9 8 -15 8 -5 0 -9 -4
-9 -8z"/>
<path d="M4390 866 c7 -7 13 -7 20 0 6 6 3 10 -10 10 -13 0 -16 -4 -10 -10z"/>
<path d="M4510 856 c0 -2 7 -7 16 -10 8 -3 12 -2 9 4 -6 10 -25 14 -25 6z"/>
<path d="M4576 852 c-3 -5 1 -9 9 -9 8 0 12 4 9 9 -3 4 -7 8 -9 8 -2 0 -6 -4
-9 -8z"/>
<path d="M4655 851 c-3 -5 -2 -12 3 -15 5 -3 9 1 9 9 0 17 -3 19 -12 6z"/>
<path d="M4745 850 c-3 -6 1 -7 9 -4 18 7 21 14 7 14 -6 0 -13 -4 -16 -10z"/>
<path d="M4810 850 c0 -5 5 -10 11 -10 5 0 7 5 4 10 -3 6 -8 10 -11 10 -2 0
-4 -4 -4 -10z"/>
</g>
</svg>
